<svg width="429" height="316" viewBox="0 0 429 316" fill="none" xmlns="http://www.w3.org/2000/svg">
<mask id="path-1-outside-1_0_1" maskUnits="userSpaceOnUse" x="0" y="0" width="367" height="243" fill="black">
<rect fill="white" width="367" height="243"/>
<path d="M10.1049 229V10.8182H43.024V105.634H151.795V10.8182H184.821V229H151.795V133.865H43.024V229H10.1049ZM285.73 232.303C269.608 232.303 255.723 228.858 244.075 221.969C232.498 215.009 223.55 205.243 217.229 192.672C210.979 180.03 207.854 165.222 207.854 148.247C207.854 131.486 210.979 116.713 217.229 103.929C223.55 91.1449 232.356 81.1662 243.649 73.9929C255.013 66.8196 268.294 63.233 283.493 63.233C292.726 63.233 301.675 64.7599 310.339 67.8139C319.004 70.8679 326.781 75.6619 333.67 82.196C340.559 88.7301 345.993 97.2173 349.97 107.658C353.947 118.027 355.936 130.634 355.936 145.477V156.77H225.858V132.906H324.721C324.721 124.526 323.017 117.104 319.608 110.641C316.199 104.107 311.405 98.9574 305.226 95.1932C299.118 91.429 291.944 89.5469 283.706 89.5469C274.757 89.5469 266.944 91.7486 260.268 96.152C253.663 100.484 248.55 106.166 244.927 113.197C241.376 120.158 239.601 127.722 239.601 135.889V154.533C239.601 165.47 241.518 174.774 245.354 182.445C249.26 190.115 254.693 195.974 261.653 200.023C268.613 204 276.746 205.989 286.05 205.989C292.086 205.989 297.591 205.136 302.562 203.432C307.534 201.656 311.831 199.028 315.453 195.548C319.075 192.068 321.845 187.771 323.763 182.658L353.912 188.091C351.497 196.969 347.165 204.746 340.915 211.422C334.736 218.027 326.959 223.176 317.584 226.869C308.28 230.491 297.662 232.303 285.73 232.303Z"/>
</mask>
<path d="M10.1049 229V10.8182H43.024V105.634H151.795V10.8182H184.821V229H151.795V133.865H43.024V229H10.1049ZM285.73 232.303C269.608 232.303 255.723 228.858 244.075 221.969C232.498 215.009 223.55 205.243 217.229 192.672C210.979 180.03 207.854 165.222 207.854 148.247C207.854 131.486 210.979 116.713 217.229 103.929C223.55 91.1449 232.356 81.1662 243.649 73.9929C255.013 66.8196 268.294 63.233 283.493 63.233C292.726 63.233 301.675 64.7599 310.339 67.8139C319.004 70.8679 326.781 75.6619 333.67 82.196C340.559 88.7301 345.993 97.2173 349.97 107.658C353.947 118.027 355.936 130.634 355.936 145.477V156.77H225.858V132.906H324.721C324.721 124.526 323.017 117.104 319.608 110.641C316.199 104.107 311.405 98.9574 305.226 95.1932C299.118 91.429 291.944 89.5469 283.706 89.5469C274.757 89.5469 266.944 91.7486 260.268 96.152C253.663 100.484 248.55 106.166 244.927 113.197C241.376 120.158 239.601 127.722 239.601 135.889V154.533C239.601 165.47 241.518 174.774 245.354 182.445C249.26 190.115 254.693 195.974 261.653 200.023C268.613 204 276.746 205.989 286.05 205.989C292.086 205.989 297.591 205.136 302.562 203.432C307.534 201.656 311.831 199.028 315.453 195.548C319.075 192.068 321.845 187.771 323.763 182.658L353.912 188.091C351.497 196.969 347.165 204.746 340.915 211.422C334.736 218.027 326.959 223.176 317.584 226.869C308.28 230.491 297.662 232.303 285.73 232.303Z" fill="#7490FF"/>
<path d="M10.1049 229V10.8182H43.024V105.634H151.795V10.8182H184.821V229H151.795V133.865H43.024V229H10.1049ZM285.73 232.303C269.608 232.303 255.723 228.858 244.075 221.969C232.498 215.009 223.55 205.243 217.229 192.672C210.979 180.03 207.854 165.222 207.854 148.247C207.854 131.486 210.979 116.713 217.229 103.929C223.55 91.1449 232.356 81.1662 243.649 73.9929C255.013 66.8196 268.294 63.233 283.493 63.233C292.726 63.233 301.675 64.7599 310.339 67.8139C319.004 70.8679 326.781 75.6619 333.67 82.196C340.559 88.7301 345.993 97.2173 349.97 107.658C353.947 118.027 355.936 130.634 355.936 145.477V156.77H225.858V132.906H324.721C324.721 124.526 323.017 117.104 319.608 110.641C316.199 104.107 311.405 98.9574 305.226 95.1932C299.118 91.429 291.944 89.5469 283.706 89.5469C274.757 89.5469 266.944 91.7486 260.268 96.152C253.663 100.484 248.55 106.166 244.927 113.197C241.376 120.158 239.601 127.722 239.601 135.889V154.533C239.601 165.47 241.518 174.774 245.354 182.445C249.26 190.115 254.693 195.974 261.653 200.023C268.613 204 276.746 205.989 286.05 205.989C292.086 205.989 297.591 205.136 302.562 203.432C307.534 201.656 311.831 199.028 315.453 195.548C319.075 192.068 321.845 187.771 323.763 182.658L353.912 188.091C351.497 196.969 347.165 204.746 340.915 211.422C334.736 218.027 326.959 223.176 317.584 226.869C308.28 230.491 297.662 232.303 285.73 232.303Z" fill="url(#paint0_linear_0_1)" style="mix-blend-mode:soft-light"/>
<path d="M10.1049 229H0.104937V239H10.1049V229ZM10.1049 10.8182V0.818175H0.104937V10.8182H10.1049ZM43.024 10.8182H53.024V0.818175H43.024V10.8182ZM43.024 105.634H33.024V115.634H43.024V105.634ZM151.795 105.634V115.634H161.795V105.634H151.795ZM151.795 10.8182V0.818175H141.795V10.8182H151.795ZM184.821 10.8182H194.821V0.818175H184.821V10.8182ZM184.821 229V239H194.821V229H184.821ZM151.795 229H141.795V239H151.795V229ZM151.795 133.865H161.795V123.865H151.795V133.865ZM43.024 133.865V123.865H33.024V133.865H43.024ZM43.024 229V239H53.024V229H43.024ZM10.1049 229H20.1049V10.8182H10.1049H0.104937V229H10.1049ZM10.1049 10.8182V20.8182H43.024V10.8182V0.818175H10.1049V10.8182ZM43.024 10.8182H33.024V105.634H43.024H53.024V10.8182H43.024ZM43.024 105.634V115.634H151.795V105.634V95.6335H43.024V105.634ZM151.795 105.634H161.795V10.8182H151.795H141.795V105.634H151.795ZM151.795 10.8182V20.8182H184.821V10.8182V0.818175H151.795V10.8182ZM184.821 10.8182H174.821V229H184.821H194.821V10.8182H184.821ZM184.821 229V219H151.795V229V239H184.821V229ZM151.795 229H161.795V133.865H151.795H141.795V229H151.795ZM151.795 133.865V123.865H43.024V133.865V143.865H151.795V133.865ZM43.024 133.865H33.024V229H43.024H53.024V133.865H43.024ZM43.024 229V219H10.1049V229V239H43.024V229ZM244.075 221.969L238.922 230.539L238.953 230.558L238.984 230.576L244.075 221.969ZM217.229 192.672L208.264 197.104L208.279 197.134L208.294 197.164L217.229 192.672ZM217.229 103.929L208.264 99.4967L208.254 99.5168L208.245 99.5369L217.229 103.929ZM243.649 73.9929L238.311 65.5367L238.299 65.5443L238.287 65.5519L243.649 73.9929ZM310.339 67.8139L313.663 58.3826L313.663 58.3826L310.339 67.8139ZM333.67 82.196L326.789 89.4516L326.789 89.4516L333.67 82.196ZM349.97 107.658L340.625 111.218L340.629 111.228L340.633 111.239L349.97 107.658ZM355.936 156.77V166.77H365.936V156.77H355.936ZM225.858 156.77H215.858V166.77H225.858V156.77ZM225.858 132.906V122.906H215.858V132.906H225.858ZM324.721 132.906V142.906H334.721V132.906H324.721ZM319.608 110.641L310.742 115.266L310.752 115.286L310.763 115.306L319.608 110.641ZM305.226 95.1932L299.979 103.706L300.001 103.72L300.023 103.733L305.226 95.1932ZM260.268 96.152L265.753 104.514L265.764 104.507L265.774 104.5L260.268 96.152ZM244.927 113.197L236.038 108.618L236.029 108.635L236.02 108.653L244.927 113.197ZM245.354 182.445L236.409 186.917L236.426 186.95L236.442 186.983L245.354 182.445ZM261.653 200.023L256.625 208.667L256.659 208.686L256.692 208.705L261.653 200.023ZM302.562 203.432L305.806 212.891L305.866 212.871L305.926 212.849L302.562 203.432ZM315.453 195.548L308.525 188.337L308.525 188.337L315.453 195.548ZM323.763 182.658L325.536 172.816L317.328 171.337L314.399 179.146L323.763 182.658ZM353.912 188.091L363.561 190.716L366.426 180.185L355.685 178.249L353.912 188.091ZM340.915 211.422L333.614 204.588L333.612 204.59L340.915 211.422ZM317.584 226.869L321.212 236.188L321.23 236.181L321.249 236.173L317.584 226.869ZM285.73 232.303V222.303C271.054 222.303 259 219.178 249.166 213.362L244.075 221.969L238.984 230.576C252.445 238.538 268.161 242.303 285.73 242.303V232.303ZM244.075 221.969L249.228 213.398C239.341 207.454 231.671 199.135 226.163 188.18L217.229 192.672L208.294 197.164C215.428 211.351 225.655 222.563 238.922 230.539L244.075 221.969ZM217.229 192.672L226.193 188.24C220.749 177.229 217.854 163.994 217.854 148.247H207.854H197.854C197.854 166.45 201.208 182.831 208.264 197.104L217.229 192.672ZM207.854 148.247H217.854C217.854 132.739 220.74 119.515 226.212 108.321L217.229 103.929L208.245 99.5369C201.217 113.911 197.854 130.233 197.854 148.247H207.854ZM217.229 103.929L226.193 108.361C231.758 97.1051 239.366 88.5605 249.011 82.4339L243.649 73.9929L238.287 65.5519C225.347 73.7719 215.341 85.1846 208.264 99.4967L217.229 103.929ZM243.649 73.9929L248.987 82.449C258.551 76.412 269.929 73.233 283.493 73.233V63.233V53.233C266.659 53.233 251.475 57.2272 238.311 65.5367L243.649 73.9929ZM283.493 63.233V73.233C291.599 73.233 299.424 74.5696 307.015 77.2452L310.339 67.8139L313.663 58.3826C303.925 54.9503 293.852 53.233 283.493 53.233V63.233ZM310.339 67.8139L307.015 77.2452C314.31 79.8162 320.884 83.8515 326.789 89.4516L333.67 82.196L340.552 74.9404C332.678 67.4724 323.699 61.9195 313.663 58.3826L310.339 67.8139ZM333.67 82.196L326.789 89.4516C332.414 94.7872 337.088 101.932 340.625 111.218L349.97 107.658L359.315 104.098C354.898 92.5022 348.705 82.673 340.552 74.9404L333.67 82.196ZM349.97 107.658L340.633 111.239C344.052 120.152 345.936 131.47 345.936 145.477H355.936H365.936C365.936 129.797 363.843 115.902 359.307 104.076L349.97 107.658ZM355.936 145.477H345.936V156.77H355.936H365.936V145.477H355.936ZM355.936 156.77V146.77H225.858V156.77V166.77H355.936V156.77ZM225.858 156.77H235.858V132.906H225.858H215.858V156.77H225.858ZM225.858 132.906V142.906H324.721V132.906V122.906H225.858V132.906ZM324.721 132.906H334.721C334.721 123.14 332.725 114.075 328.453 105.975L319.608 110.641L310.763 115.306C313.308 120.132 314.721 125.911 314.721 132.906H324.721ZM319.608 110.641L328.474 106.015C324.239 97.8986 318.192 91.3827 310.428 86.6531L305.226 95.1932L300.023 103.733C304.617 106.532 308.158 110.314 310.742 115.266L319.608 110.641ZM305.226 95.1932L310.472 86.68C302.564 81.8064 293.517 79.5469 283.706 79.5469V89.5469V99.5469C290.372 99.5469 295.671 101.052 299.979 103.706L305.226 95.1932ZM283.706 89.5469V79.5469C273.041 79.5469 263.263 82.1976 254.762 87.8043L260.268 96.152L265.774 104.5C270.626 101.3 276.473 99.5469 283.706 99.5469V89.5469ZM260.268 96.152L254.784 87.7902C246.734 93.0699 240.449 100.055 236.038 108.618L244.927 113.197L253.817 117.777C256.65 112.277 260.592 107.899 265.753 104.514L260.268 96.152ZM244.927 113.197L236.02 108.653C231.718 117.085 229.601 126.215 229.601 135.889H239.601H249.601C249.601 129.228 251.035 123.231 253.835 117.742L244.927 113.197ZM239.601 135.889H229.601V154.533H239.601H249.601V135.889H239.601ZM239.601 154.533H229.601C229.601 166.608 231.715 177.529 236.409 186.917L245.354 182.445L254.298 177.972C251.321 172.019 249.601 164.333 249.601 154.533H239.601ZM245.354 182.445L236.442 186.983C241.158 196.243 247.887 203.584 256.625 208.667L261.653 200.023L266.681 191.379C261.499 188.365 257.361 183.987 254.265 177.907L245.354 182.445ZM261.653 200.023L256.692 208.705C265.391 213.676 275.288 215.989 286.05 215.989V205.989V195.989C278.203 195.989 271.836 194.324 266.615 191.34L261.653 200.023ZM286.05 205.989V215.989C293.029 215.989 299.648 215.003 305.806 212.891L302.562 203.432L299.319 193.972C295.534 195.27 291.144 195.989 286.05 195.989V205.989ZM302.562 203.432L305.926 212.849C312.159 210.623 317.688 207.268 322.381 202.759L315.453 195.548L308.525 188.337C305.973 190.789 302.909 192.689 299.199 194.014L302.562 203.432ZM315.453 195.548L322.381 202.759C327.173 198.155 330.73 192.558 333.126 186.169L323.763 182.658L314.399 179.146C312.96 182.984 310.977 185.981 308.525 188.337L315.453 195.548ZM323.763 182.658L321.989 192.499L352.138 197.932L353.912 188.091L355.685 178.249L325.536 172.816L323.763 182.658ZM353.912 188.091L344.262 185.466C342.273 192.78 338.743 199.11 333.614 204.588L340.915 211.422L348.215 218.256C355.586 210.382 360.721 201.157 363.561 190.716L353.912 188.091ZM340.915 211.422L333.612 204.59C328.557 209.993 322.071 214.354 313.918 217.565L317.584 226.869L321.249 236.173C331.846 231.999 340.914 226.061 348.217 218.253L340.915 211.422ZM317.584 226.869L313.956 217.551C306.01 220.644 296.657 222.303 285.73 222.303V232.303V242.303C298.666 242.303 310.549 240.339 321.212 236.188L317.584 226.869Z" fill="url(#paint1_linear_0_1)" style="mix-blend-mode:soft-light" mask="url(#path-1-outside-1_0_1)"/>
<mask id="path-3-outside-2_0_1" maskUnits="userSpaceOnUse" x="311" y="154" width="118" height="162" fill="black">
<rect fill="white" x="311" y="154" width="118" height="162"/>
<path d="M322.784 306V287.727L371.261 240.205C375.898 235.523 379.761 231.364 382.852 227.727C385.943 224.091 388.261 220.568 389.807 217.159C391.352 213.75 392.125 210.114 392.125 206.25C392.125 201.841 391.125 198.068 389.125 194.932C387.125 191.75 384.375 189.295 380.875 187.568C377.375 185.841 373.398 184.977 368.943 184.977C364.352 184.977 360.33 185.932 356.875 187.841C353.42 189.705 350.739 192.364 348.83 195.818C346.966 199.273 346.034 203.386 346.034 208.159H321.966C321.966 199.295 323.989 191.591 328.034 185.045C332.08 178.5 337.648 173.432 344.739 169.841C351.875 166.25 360.057 164.455 369.284 164.455C378.648 164.455 386.875 166.205 393.966 169.705C401.057 173.205 406.557 178 410.466 184.091C414.42 190.182 416.398 197.136 416.398 204.955C416.398 210.182 415.398 215.318 413.398 220.364C411.398 225.409 407.875 231 402.83 237.136C397.83 243.273 390.807 250.705 381.761 259.432L357.693 283.909V284.864H418.511V306H322.784Z"/>
</mask>
<path d="M322.784 306V287.727L371.261 240.205C375.898 235.523 379.761 231.364 382.852 227.727C385.943 224.091 388.261 220.568 389.807 217.159C391.352 213.75 392.125 210.114 392.125 206.25C392.125 201.841 391.125 198.068 389.125 194.932C387.125 191.75 384.375 189.295 380.875 187.568C377.375 185.841 373.398 184.977 368.943 184.977C364.352 184.977 360.33 185.932 356.875 187.841C353.42 189.705 350.739 192.364 348.83 195.818C346.966 199.273 346.034 203.386 346.034 208.159H321.966C321.966 199.295 323.989 191.591 328.034 185.045C332.08 178.5 337.648 173.432 344.739 169.841C351.875 166.25 360.057 164.455 369.284 164.455C378.648 164.455 386.875 166.205 393.966 169.705C401.057 173.205 406.557 178 410.466 184.091C414.42 190.182 416.398 197.136 416.398 204.955C416.398 210.182 415.398 215.318 413.398 220.364C411.398 225.409 407.875 231 402.83 237.136C397.83 243.273 390.807 250.705 381.761 259.432L357.693 283.909V284.864H418.511V306H322.784Z" fill="url(#paint2_linear_0_1)"/>
<path d="M322.784 306V287.727L371.261 240.205C375.898 235.523 379.761 231.364 382.852 227.727C385.943 224.091 388.261 220.568 389.807 217.159C391.352 213.75 392.125 210.114 392.125 206.25C392.125 201.841 391.125 198.068 389.125 194.932C387.125 191.75 384.375 189.295 380.875 187.568C377.375 185.841 373.398 184.977 368.943 184.977C364.352 184.977 360.33 185.932 356.875 187.841C353.42 189.705 350.739 192.364 348.83 195.818C346.966 199.273 346.034 203.386 346.034 208.159H321.966C321.966 199.295 323.989 191.591 328.034 185.045C332.08 178.5 337.648 173.432 344.739 169.841C351.875 166.25 360.057 164.455 369.284 164.455C378.648 164.455 386.875 166.205 393.966 169.705C401.057 173.205 406.557 178 410.466 184.091C414.42 190.182 416.398 197.136 416.398 204.955C416.398 210.182 415.398 215.318 413.398 220.364C411.398 225.409 407.875 231 402.83 237.136C397.83 243.273 390.807 250.705 381.761 259.432L357.693 283.909V284.864H418.511V306H322.784Z" fill="url(#paint3_linear_0_1)" style="mix-blend-mode:soft-light"/>
<path d="M322.784 306H312.784V316H322.784V306ZM322.784 287.727L315.784 280.586L312.784 283.527V287.727H322.784ZM371.261 240.205L378.262 247.346L378.315 247.294L378.367 247.241L371.261 240.205ZM389.807 217.159L398.915 221.288L398.915 221.288L389.807 217.159ZM389.125 194.932L380.659 200.254L380.676 200.281L380.693 200.308L389.125 194.932ZM380.875 187.568L376.449 196.536L376.45 196.536L380.875 187.568ZM356.875 187.841L361.623 196.642L361.668 196.618L361.712 196.593L356.875 187.841ZM348.83 195.818L340.077 190.981L340.053 191.026L340.029 191.07L348.83 195.818ZM346.034 208.159V218.159H356.034V208.159H346.034ZM321.966 208.159H311.966V218.159H321.966V208.159ZM328.034 185.045L336.541 190.303L336.541 190.303L328.034 185.045ZM344.739 169.841L340.244 160.908L340.232 160.914L340.221 160.92L344.739 169.841ZM393.966 169.705L398.392 160.737L398.392 160.737L393.966 169.705ZM410.466 184.091L402.05 189.492L402.064 189.514L402.079 189.536L410.466 184.091ZM413.398 220.364L404.101 216.679L404.101 216.679L413.398 220.364ZM402.83 237.136L395.105 230.785L395.091 230.802L395.077 230.82L402.83 237.136ZM381.761 259.432L374.818 252.235L374.723 252.327L374.631 252.421L381.761 259.432ZM357.693 283.909L350.563 276.898L347.693 279.816V283.909H357.693ZM357.693 284.864H347.693V294.864H357.693V284.864ZM418.511 284.864H428.511V274.864H418.511V284.864ZM418.511 306V316H428.511V306H418.511ZM322.784 306H332.784V287.727H322.784H312.784V306H322.784ZM322.784 287.727L329.785 294.868L378.262 247.346L371.261 240.205L364.261 233.064L315.784 280.586L322.784 287.727ZM371.261 240.205L378.367 247.241C383.12 242.441 387.168 238.09 390.472 234.204L382.852 227.727L375.233 221.251C372.354 224.637 368.676 228.604 364.156 233.168L371.261 240.205ZM382.852 227.727L390.472 234.204C394.009 230.043 396.896 225.741 398.915 221.288L389.807 217.159L380.699 213.03C379.627 215.396 377.878 218.139 375.233 221.251L382.852 227.727ZM389.807 217.159L398.915 221.288C401.067 216.54 402.125 211.491 402.125 206.25H392.125H382.125C382.125 208.737 381.637 210.96 380.699 213.03L389.807 217.159ZM392.125 206.25H402.125C402.125 200.294 400.758 194.575 397.557 189.555L389.125 194.932L380.693 200.308C381.492 201.561 382.125 203.388 382.125 206.25H392.125ZM389.125 194.932L397.591 189.61C394.568 184.801 390.392 181.113 385.3 178.601L380.875 187.568L376.45 196.536C378.358 197.478 379.682 198.699 380.659 200.254L389.125 194.932ZM380.875 187.568L385.301 178.601C380.241 176.104 374.715 174.977 368.943 174.977V184.977V194.977C372.081 194.977 374.509 195.578 376.449 196.536L380.875 187.568ZM368.943 184.977V174.977C362.938 174.977 357.199 176.236 352.038 179.088L356.875 187.841L361.712 196.593C363.46 195.627 365.766 194.977 368.943 194.977V184.977ZM356.875 187.841L352.127 179.04C346.975 181.819 342.908 185.859 340.077 190.981L348.83 195.818L357.582 200.655C358.569 198.869 359.866 197.59 361.623 196.642L356.875 187.841ZM348.83 195.818L340.029 191.07C337.225 196.267 336.034 202.084 336.034 208.159H346.034H356.034C356.034 204.689 356.707 202.279 357.631 200.566L348.83 195.818ZM346.034 208.159V198.159H321.966V208.159V218.159H346.034V208.159ZM321.966 208.159H331.966C331.966 200.865 333.612 195.04 336.541 190.303L328.034 185.045L319.528 179.788C314.365 188.141 311.966 197.726 311.966 208.159H321.966ZM328.034 185.045L336.541 190.303C339.586 185.376 343.75 181.551 349.256 178.762L344.739 169.841L340.221 160.92C331.545 165.313 324.573 171.624 319.528 179.788L328.034 185.045ZM344.739 169.841L349.234 178.774C354.774 175.986 361.375 174.455 369.284 174.455V164.455V154.455C358.738 154.455 348.976 156.514 340.244 160.908L344.739 169.841ZM369.284 164.455V174.455C377.393 174.455 384.057 175.965 389.54 178.672L393.966 169.705L398.392 160.737C389.693 156.444 379.902 154.455 369.284 154.455V164.455ZM393.966 169.705L389.54 178.672C395.157 181.444 399.212 185.07 402.05 189.492L410.466 184.091L418.882 178.69C413.902 170.93 406.956 164.965 398.392 160.737L393.966 169.705ZM410.466 184.091L402.079 189.536C404.899 193.881 406.398 198.915 406.398 204.955H416.398H426.398C426.398 195.358 423.941 186.483 418.853 178.645L410.466 184.091ZM416.398 204.955H406.398C406.398 208.872 405.655 212.76 404.101 216.679L413.398 220.364L422.694 224.049C425.141 217.876 426.398 211.492 426.398 204.955H416.398ZM413.398 220.364L404.101 216.679C402.617 220.424 399.768 225.115 395.105 230.785L402.83 237.136L410.554 243.487C415.982 236.885 420.179 230.394 422.694 224.049L413.398 220.364ZM402.83 237.136L395.077 230.82C390.431 236.522 383.722 243.644 374.818 252.235L381.761 259.432L388.705 266.628C397.892 257.765 405.228 250.023 410.582 243.453L402.83 237.136ZM381.761 259.432L374.631 252.421L350.563 276.898L357.693 283.909L364.824 290.92L388.892 266.443L381.761 259.432ZM357.693 283.909H347.693V284.864H357.693H367.693V283.909H357.693ZM357.693 284.864V294.864H418.511V284.864V274.864H357.693V284.864ZM418.511 284.864H408.511V306H418.511H428.511V284.864H418.511ZM418.511 306V296H322.784V306V316H418.511V306Z" fill="url(#paint4_linear_0_1)" mask="url(#path-3-outside-2_0_1)"/>
<defs>
<linearGradient id="paint0_linear_0_1" x1="178" y1="-62" x2="178" y2="301" gradientUnits="userSpaceOnUse">
<stop stop-color="white"/>
<stop offset="1"/>
</linearGradient>
<linearGradient id="paint1_linear_0_1" x1="178" y1="-62" x2="178" y2="301" gradientUnits="userSpaceOnUse">
<stop offset="0.293269"/>
<stop offset="1" stop-color="#5C5FFF"/>
</linearGradient>
<linearGradient id="paint2_linear_0_1" x1="370" y1="120" x2="370" y2="352" gradientUnits="userSpaceOnUse">
<stop stop-color="#FFDE5B"/>
<stop offset="1" stop-color="#FF9D00"/>
</linearGradient>
<linearGradient id="paint3_linear_0_1" x1="370" y1="120" x2="370" y2="352" gradientUnits="userSpaceOnUse">
<stop stop-color="white"/>
<stop offset="1"/>
</linearGradient>
<linearGradient id="paint4_linear_0_1" x1="370" y1="120" x2="370" y2="352" gradientUnits="userSpaceOnUse">
<stop stop-color="#FFCC5D"/>
<stop offset="0.889423" stop-color="#6D0000"/>
</linearGradient>
</defs>
</svg>
